<svg width="307" height="47" viewBox="0 0 307 47" fill="none" xmlns="http://www.w3.org/2000/svg">
<rect x="0.25" y="0.25" width="306.5" height="46.5" rx="4.75" fill="white" stroke="#B5BDCD" stroke-width="0.5"/>
<path d="M19.672 29.16C18.856 29.16 18.1413 29.0267 17.528 28.76C16.92 28.4933 16.4453 28.0933 16.104 27.56C15.7627 27.0267 15.584 26.36 15.568 25.56H17.032C17.048 26.072 17.1707 26.4933 17.4 26.824C17.6293 27.1547 17.944 27.4027 18.344 27.568C18.7493 27.728 19.2187 27.808 19.752 27.808C20.3333 27.808 20.8 27.7333 21.152 27.584C21.5093 27.4347 21.7707 27.232 21.936 26.976C22.1013 26.7147 22.184 26.424 22.184 26.104C22.184 25.7093 22.072 25.384 21.848 25.128C21.6293 24.8667 21.3067 24.6373 20.88 24.44C20.4587 24.2373 19.9467 24.032 19.344 23.824C18.704 23.6 18.136 23.3333 17.64 23.024C17.1493 22.7093 16.7627 22.3307 16.48 21.888C16.1973 21.44 16.056 20.912 16.056 20.304C16.056 19.2907 16.384 18.5173 17.04 17.984C17.7013 17.4507 18.5947 17.184 19.72 17.184C20.472 17.184 21.0933 17.304 21.584 17.544C22.08 17.784 22.464 18.1413 22.736 18.616C23.008 19.0853 23.1867 19.6693 23.272 20.368H21.8C21.752 20 21.6507 19.68 21.496 19.408C21.3413 19.1307 21.1147 18.9173 20.816 18.768C20.5227 18.6133 20.1307 18.536 19.64 18.536C18.9733 18.536 18.4533 18.6773 18.08 18.96C17.712 19.2427 17.528 19.6667 17.528 20.232C17.528 20.568 17.5947 20.8613 17.728 21.112C17.8667 21.3627 18.112 21.6 18.464 21.824C18.816 22.048 19.3227 22.288 19.984 22.544C20.464 22.7307 20.9253 22.9173 21.368 23.104C21.8107 23.2907 22.2053 23.5067 22.552 23.752C22.8987 23.992 23.1733 24.2933 23.376 24.656C23.5787 25.0133 23.68 25.4613 23.68 26C23.6907 27.0133 23.3547 27.7947 22.672 28.344C21.9893 28.888 20.9893 29.16 19.672 29.16ZM29.007 29.12C28.2123 29.12 27.5137 28.9467 26.911 28.6C26.3137 28.2533 25.8497 27.744 25.519 27.072C25.1883 26.3947 25.023 25.568 25.023 24.592C25.023 23.6533 25.1937 22.848 25.535 22.176C25.8763 21.504 26.3457 20.9893 26.943 20.632C27.5403 20.2747 28.2203 20.096 28.983 20.096C29.7403 20.096 30.3883 20.2587 30.927 20.584C31.471 20.9093 31.8897 21.376 32.183 21.984C32.4763 22.5867 32.6203 23.3093 32.615 24.152C32.615 24.3227 32.6097 24.464 32.599 24.576C32.5883 24.688 32.5803 24.8053 32.575 24.928H26.511C26.5483 25.888 26.7883 26.616 27.231 27.112C27.679 27.6027 28.2497 27.848 28.943 27.848C29.5297 27.848 29.983 27.7253 30.303 27.48C30.6283 27.2293 30.8337 26.9093 30.919 26.52H32.375C32.3377 27.0747 32.167 27.5467 31.863 27.936C31.5643 28.3253 31.1697 28.6213 30.679 28.824C30.1883 29.0213 29.631 29.12 29.007 29.12ZM27.303 23.808H31.119C31.1083 23.0613 30.9243 22.4747 30.567 22.048C30.2097 21.6213 29.663 21.408 28.927 21.408C28.1537 21.408 27.567 21.672 27.167 22.2C26.767 22.7227 26.5483 23.4453 26.511 24.368C26.5537 24.1493 26.639 24.0027 26.767 23.928C26.9003 23.848 27.079 23.808 27.303 23.808ZM36.6435 29.096C36.0888 29.096 35.6088 28.992 35.2035 28.784C34.8035 28.5707 34.4942 28.2827 34.2755 27.92C34.0622 27.5573 33.9555 27.1467 33.9555 26.688C33.9555 26.2133 34.0488 25.8133 34.2355 25.488C34.4222 25.1573 34.6915 24.888 35.0435 24.68C35.3955 24.4667 35.8222 24.3067 36.3235 24.2C36.6542 24.1253 37.0035 24.0667 37.3715 24.024C37.7448 23.9813 38.1022 23.9467 38.4435 23.92C38.7848 23.8933 39.0755 23.8747 39.3155 23.864V23.376C39.3155 22.6773 39.1688 22.176 38.8755 21.872C38.5822 21.5627 38.1262 21.408 37.5075 21.408C37.1235 21.408 36.7848 21.4587 36.4915 21.56C36.2035 21.6613 35.9795 21.8507 35.8195 22.128C35.6595 22.4 35.5822 22.8 35.5875 23.328H34.1955C34.1315 22.608 34.2328 22.0107 34.4995 21.536C34.7662 21.056 35.1662 20.6987 35.6995 20.464C36.2328 20.224 36.8648 20.104 37.5955 20.104C38.0115 20.104 38.4088 20.1547 38.7875 20.256C39.1662 20.352 39.5022 20.5173 39.7955 20.752C40.0888 20.9813 40.3208 21.296 40.4915 21.696C40.6622 22.096 40.7475 22.5973 40.7475 23.2V29H39.2995L39.3155 27.104C39.1822 27.7067 38.8808 28.1893 38.4115 28.552C37.9475 28.9147 37.3582 29.096 36.6435 29.096ZM36.9875 27.92C37.3768 27.92 37.7342 27.848 38.0595 27.704C38.3902 27.56 38.6675 27.376 38.8915 27.152C39.1155 26.928 39.2568 26.6987 39.3155 26.464V24.768C39.0062 24.7893 38.6622 24.8267 38.2835 24.88C37.9048 24.928 37.5715 24.9867 37.2835 25.056C36.7075 25.1893 36.2782 25.368 35.9955 25.592C35.7182 25.816 35.5795 26.1387 35.5795 26.56C35.5795 26.8107 35.6328 27.04 35.7395 27.248C35.8515 27.4507 36.0115 27.6133 36.2195 27.736C36.4275 27.8533 36.6835 27.9147 36.9875 27.92ZM43.2651 29V20.272H44.5291L44.6891 23.624L44.5131 23.168C44.5505 22.8373 44.6225 22.4933 44.7291 22.136C44.8411 21.7787 44.9985 21.4453 45.2011 21.136C45.4091 20.8213 45.6731 20.568 45.9931 20.376C46.3185 20.184 46.7158 20.088 47.1851 20.088C47.2758 20.088 47.3611 20.0933 47.4411 20.104C47.5265 20.1147 47.6091 20.128 47.6891 20.144V21.72C47.5558 21.6773 47.4145 21.6507 47.2651 21.64C47.1211 21.624 46.9851 21.616 46.8571 21.616C46.5958 21.616 46.3318 21.6667 46.0651 21.768C45.7985 21.8693 45.5505 22.032 45.3211 22.256C45.0918 22.4747 44.9025 22.76 44.7531 23.112V29H43.2651ZM52.6255 29.144C51.8148 29.144 51.1108 28.96 50.5135 28.592C49.9162 28.224 49.4548 27.7013 49.1295 27.024C48.8042 26.3467 48.6415 25.5493 48.6415 24.632C48.6415 23.6667 48.8068 22.848 49.1375 22.176C49.4735 21.504 49.9348 20.992 50.5215 20.64C51.1135 20.2827 51.7882 20.104 52.5455 20.104C53.2708 20.104 53.8868 20.2453 54.3935 20.528C54.9002 20.8053 55.2868 21.176 55.5535 21.64C55.8255 22.104 55.9695 22.616 55.9855 23.176H54.5215C54.5108 22.9627 54.4655 22.752 54.3855 22.544C54.3055 22.336 54.1855 22.1493 54.0255 21.984C53.8655 21.8133 53.6602 21.6773 53.4095 21.576C53.1642 21.4693 52.8682 21.416 52.5215 21.416C51.7162 21.4107 51.1215 21.6907 50.7375 22.256C50.3535 22.8213 50.1615 23.5973 50.1615 24.584C50.1615 25.64 50.3748 26.4453 50.8015 27C51.2282 27.5547 51.8682 27.832 52.7215 27.832C53.0522 27.832 53.3482 27.7573 53.6095 27.608C53.8708 27.4587 54.0788 27.264 54.2335 27.024C54.3935 26.784 54.4788 26.528 54.4895 26.256H55.9535C55.9375 26.8053 55.7828 27.2987 55.4895 27.736C55.1962 28.1733 54.8015 28.5173 54.3055 28.768C53.8095 29.0187 53.2495 29.144 52.6255 29.144ZM57.7731 29V16.56H59.2531V20.272L59.1251 22.76L59.1971 23.464L59.0691 22.896C59.1331 22.4107 59.2665 21.9547 59.4691 21.528C59.6771 21.1013 59.9785 20.7547 60.3731 20.488C60.7731 20.2213 61.2878 20.088 61.9171 20.088C62.7438 20.088 63.3811 20.3333 63.8291 20.824C64.2771 21.3147 64.5011 22.0613 64.5011 23.064V29H63.0131V23.552C63.0131 22.8427 62.8958 22.32 62.6611 21.984C62.4318 21.648 62.0078 21.48 61.3891 21.48C60.9145 21.48 60.5011 21.6213 60.1491 21.904C59.7971 22.1813 59.4985 22.5573 59.2531 23.032V29H57.7731ZM72.7774 29.096C72.068 29.096 71.4547 28.9093 70.9374 28.536C70.4254 28.1627 70.0307 27.6373 69.7534 26.96C69.4814 26.2827 69.3454 25.4907 69.3454 24.584C69.3454 23.5813 69.5134 22.7493 69.8494 22.088C70.1907 21.4213 70.628 20.9253 71.1614 20.6C71.7 20.2693 72.268 20.104 72.8654 20.104C73.4467 20.104 73.9027 20.2027 74.2334 20.4C74.5694 20.5973 74.8147 20.8267 74.9694 21.088C75.1294 21.344 75.2254 21.5653 75.2574 21.752L75.7294 21.832L75.1534 22.336C75.116 22.224 75.0254 22.096 74.8814 21.952C74.7374 21.8027 74.532 21.6747 74.2654 21.568C73.9987 21.456 73.66 21.4 73.2494 21.4C72.5614 21.4 71.9934 21.6587 71.5454 22.176C71.0974 22.688 70.8734 23.5013 70.8734 24.616C70.8734 25.6507 71.084 26.4453 71.5054 27C71.932 27.5547 72.4787 27.832 73.1454 27.832C73.5614 27.832 73.9054 27.76 74.1774 27.616C74.4547 27.472 74.6707 27.296 74.8254 27.088C74.9854 26.88 75.0947 26.6853 75.1534 26.504L75.2334 26.792L75.1534 27.088C75.1267 27.264 75.068 27.4667 74.9774 27.696C74.8867 27.92 74.7507 28.1387 74.5694 28.352C74.388 28.5653 74.1507 28.744 73.8574 28.888C73.5694 29.0267 73.2094 29.096 72.7774 29.096ZM75.1614 29L75.1534 16.552H76.6334L76.6414 29H75.1614ZM82.5288 29.12C81.7608 29.12 81.0861 28.9467 80.5048 28.6C79.9288 28.2533 79.4781 27.744 79.1528 27.072C78.8328 26.3947 78.6728 25.5653 78.6728 24.584C78.6728 23.656 78.8434 22.856 79.1848 22.184C79.5261 21.512 79.9901 20.9973 80.5768 20.64C81.1688 20.2773 81.8301 20.096 82.5608 20.096C83.3554 20.096 84.0408 20.2773 84.6168 20.64C85.1981 20.9973 85.6461 21.512 85.9608 22.184C86.2754 22.856 86.4328 23.656 86.4328 24.584C86.4328 25.5653 86.2568 26.3947 85.9048 27.072C85.5581 27.744 85.0888 28.2533 84.4968 28.6C83.9048 28.9467 83.2488 29.12 82.5288 29.12ZM82.5608 27.808C83.2754 27.808 83.8461 27.5413 84.2728 27.008C84.6994 26.4747 84.9128 25.6667 84.9128 24.584C84.9128 23.5493 84.7021 22.7627 84.2808 22.224C83.8648 21.68 83.2808 21.408 82.5288 21.408C81.8194 21.408 81.2514 21.68 80.8248 22.224C80.4034 22.7627 80.1928 23.5493 80.1928 24.584C80.1928 25.6293 80.4061 26.4293 80.8328 26.984C81.2648 27.5333 81.8408 27.808 82.5608 27.808ZM91.8286 29.144C91.018 29.144 90.314 28.96 89.7166 28.592C89.1193 28.224 88.658 27.7013 88.3326 27.024C88.0073 26.3467 87.8446 25.5493 87.8446 24.632C87.8446 23.6667 88.01 22.848 88.3406 22.176C88.6766 21.504 89.138 20.992 89.7246 20.64C90.3166 20.2827 90.9913 20.104 91.7486 20.104C92.474 20.104 93.09 20.2453 93.5966 20.528C94.1033 20.8053 94.49 21.176 94.7566 21.64C95.0286 22.104 95.1726 22.616 95.1886 23.176H93.7246C93.714 22.9627 93.6686 22.752 93.5886 22.544C93.5086 22.336 93.3886 22.1493 93.2286 21.984C93.0686 21.8133 92.8633 21.6773 92.6126 21.576C92.3673 21.4693 92.0713 21.416 91.7246 21.416C90.9193 21.4107 90.3246 21.6907 89.9406 22.256C89.5566 22.8213 89.3646 23.5973 89.3646 24.584C89.3646 25.64 89.578 26.4453 90.0046 27C90.4313 27.5547 91.0713 27.832 91.9246 27.832C92.2553 27.832 92.5513 27.7573 92.8126 27.608C93.074 27.4587 93.282 27.264 93.4366 27.024C93.5966 26.784 93.682 26.528 93.6926 26.256H95.1566C95.1406 26.8053 94.986 27.2987 94.6926 27.736C94.3993 28.1733 94.0046 28.5173 93.5086 28.768C93.0126 29.0187 92.4526 29.144 91.8286 29.144ZM99.3766 29.176C98.6246 29.176 98.0193 28.92 97.5606 28.408C97.102 27.896 96.8726 27.1813 96.8726 26.264V20.272H98.3606V25.864C98.3606 26.3013 98.4113 26.6613 98.5126 26.944C98.614 27.2267 98.774 27.4373 98.9926 27.576C99.2166 27.7093 99.5046 27.7787 99.8566 27.784C100.337 27.784 100.753 27.656 101.105 27.4C101.462 27.1387 101.758 26.7787 101.993 26.32V20.272H103.473V29H102.209L102.041 25.968L102.201 26.368C102.131 26.88 101.985 27.3493 101.761 27.776C101.542 28.1973 101.235 28.536 100.841 28.792C100.451 29.048 99.9633 29.176 99.3766 29.176ZM106.125 29V20.272H107.389L107.557 23.56L107.413 22.896C107.482 22.3787 107.626 21.9093 107.845 21.488C108.063 21.0613 108.373 20.7227 108.773 20.472C109.173 20.216 109.677 20.088 110.285 20.088C110.994 20.088 111.557 20.288 111.973 20.688C112.394 21.0827 112.653 21.6907 112.749 22.512L112.789 22.632V29H111.301V23.56C111.301 23.064 111.247 22.664 111.141 22.36C111.039 22.056 110.874 21.8347 110.645 21.696C110.415 21.552 110.114 21.48 109.741 21.48C109.271 21.48 108.858 21.6107 108.501 21.872C108.143 22.1333 107.85 22.4933 107.621 22.952V29H106.125ZM116.477 29V23.552C116.477 23.0613 116.423 22.664 116.317 22.36C116.21 22.056 116.042 21.8347 115.813 21.696C115.589 21.552 115.29 21.48 114.917 21.48C114.447 21.48 114.034 21.6107 113.677 21.872C113.319 22.1333 113.023 22.4933 112.789 22.952L112.757 23.56L112.613 22.992C112.671 22.4853 112.807 22.0107 113.021 21.568C113.234 21.1253 113.538 20.768 113.933 20.496C114.333 20.224 114.834 20.088 115.437 20.088C116.231 20.088 116.85 20.3387 117.293 20.84C117.741 21.3413 117.965 22.0827 117.965 23.064V29H116.477ZM123.866 29.12C123.072 29.12 122.373 28.9467 121.77 28.6C121.173 28.2533 120.709 27.744 120.378 27.072C120.048 26.3947 119.882 25.568 119.882 24.592C119.882 23.6533 120.053 22.848 120.394 22.176C120.736 21.504 121.205 20.9893 121.802 20.632C122.4 20.2747 123.08 20.096 123.842 20.096C124.6 20.096 125.248 20.2587 125.786 20.584C126.33 20.9093 126.749 21.376 127.042 21.984C127.336 22.5867 127.48 23.3093 127.474 24.152C127.474 24.3227 127.469 24.464 127.458 24.576C127.448 24.688 127.44 24.8053 127.434 24.928H121.37C121.408 25.888 121.648 26.616 122.09 27.112C122.538 27.6027 123.109 27.848 123.802 27.848C124.389 27.848 124.842 27.7253 125.162 27.48C125.488 27.2293 125.693 26.9093 125.778 26.52H127.234C127.197 27.0747 127.026 27.5467 126.722 27.936C126.424 28.3253 126.029 28.6213 125.538 28.824C125.048 29.0213 124.49 29.12 123.866 29.12ZM122.162 23.808H125.978C125.968 23.0613 125.784 22.4747 125.426 22.048C125.069 21.6213 124.522 21.408 123.786 21.408C123.013 21.408 122.426 21.672 122.026 22.2C121.626 22.7227 121.408 23.4453 121.37 24.368C121.413 24.1493 121.498 24.0027 121.626 23.928C121.76 23.848 121.938 23.808 122.162 23.808ZM129.421 29V20.272H130.685L130.845 23.56L130.701 22.896C130.771 22.3787 130.915 21.9093 131.133 21.488C131.357 21.0613 131.669 20.7227 132.069 20.472C132.475 20.216 132.984 20.088 133.597 20.088C134.408 20.088 135.037 20.3387 135.485 20.84C135.939 21.336 136.165 22.0773 136.165 23.064V29H134.677V23.552C134.677 23.056 134.621 22.656 134.509 22.352C134.403 22.048 134.229 21.8267 133.989 21.688C133.755 21.5493 133.44 21.48 133.045 21.48C132.571 21.48 132.152 21.6107 131.789 21.872C131.432 22.1333 131.139 22.4933 130.909 22.952V29H129.421ZM141.005 29.12C140.328 29.12 139.81 28.9467 139.453 28.6C139.101 28.248 138.925 27.7493 138.925 27.104V22.368C138.925 22.1973 138.96 22.04 139.029 21.896C139.098 21.7467 139.2 21.6507 139.333 21.608L138.925 20.616V20.344L139.285 17.736H140.397V26.856C140.397 27.1973 140.477 27.4293 140.637 27.552C140.797 27.6693 141.072 27.728 141.461 27.728C141.744 27.728 141.984 27.728 142.181 27.728C142.378 27.7227 142.584 27.712 142.797 27.696V29.008C142.504 29.0613 142.2 29.0933 141.885 29.104C141.576 29.1147 141.282 29.12 141.005 29.12ZM137.653 21.608V20.272H142.725V21.608H137.653ZM147.416 29.136C146.813 29.136 146.261 29.0453 145.76 28.864C145.264 28.6773 144.861 28.3893 144.552 28C144.243 27.6053 144.069 27.0987 144.032 26.48H145.504C145.6 27.0133 145.811 27.3813 146.136 27.584C146.467 27.7813 146.885 27.88 147.392 27.88C147.739 27.88 148.051 27.8427 148.328 27.768C148.611 27.6933 148.835 27.568 149 27.392C149.165 27.216 149.248 26.976 149.248 26.672C149.248 26.4373 149.197 26.248 149.096 26.104C148.995 25.96 148.853 25.8427 148.672 25.752C148.491 25.656 148.277 25.5733 148.032 25.504C147.792 25.4347 147.531 25.36 147.248 25.28C146.72 25.1253 146.232 24.9467 145.784 24.744C145.336 24.536 144.976 24.2587 144.704 23.912C144.432 23.5653 144.296 23.1013 144.296 22.52C144.296 21.8053 144.568 21.2267 145.112 20.784C145.656 20.336 146.371 20.112 147.256 20.112C147.816 20.112 148.32 20.1973 148.768 20.368C149.221 20.5387 149.589 20.8133 149.872 21.192C150.16 21.5653 150.336 22.0667 150.4 22.696H148.936C148.883 22.408 148.784 22.1653 148.64 21.968C148.501 21.7707 148.317 21.6213 148.088 21.52C147.859 21.4187 147.579 21.368 147.248 21.368C146.971 21.368 146.72 21.408 146.496 21.488C146.272 21.5627 146.093 21.6827 145.96 21.848C145.827 22.0133 145.76 22.232 145.76 22.504C145.76 22.8027 145.84 23.0427 146 23.224C146.16 23.4053 146.387 23.5573 146.68 23.68C146.973 23.7973 147.317 23.9147 147.712 24.032C148.016 24.128 148.341 24.2293 148.688 24.336C149.035 24.4373 149.36 24.5733 149.664 24.744C149.973 24.9147 150.224 25.144 150.416 25.432C150.613 25.7147 150.712 26.0853 150.712 26.544C150.712 27.3653 150.408 28.0027 149.8 28.456C149.192 28.9093 148.397 29.136 147.416 29.136Z" fill="#B5BDCD"/>
<g clip-path="url(#clip0_1_110)">
<path d="M289.24 31.64L284.3 26.7C283.8 27.1 283.22 27.42 282.57 27.65C281.92 27.88 281.23 28 280.49 28C278.67 28 277.14 27.37 275.88 26.11C274.62 24.85 273.99 23.31 273.99 21.5C273.99 19.69 274.63 18.15 275.89 16.89C277.15 15.63 278.68 15 280.5 15C282.32 15 283.85 15.63 285.11 16.89C286.37 18.15 287 19.69 287 21.5C287 22.23 286.88 22.93 286.65 23.58C286.42 24.23 286.1 24.81 285.7 25.31L290.64 30.25L289.24 31.65V31.64ZM280.5 26C281.75 26 282.81 25.56 283.69 24.69C284.57 23.82 285 22.75 285 21.5C285 20.25 284.56 19.19 283.69 18.31C282.82 17.43 281.75 17 280.5 17C279.25 17 278.19 17.44 277.31 18.31C276.43 19.18 276 20.25 276 21.5C276 22.75 276.44 23.81 277.31 24.69C278.18 25.57 279.25 26 280.5 26Z" fill="#B5BDCD"/>
</g>
<defs>
<clipPath id="clip0_1_110">
<rect width="16.64" height="16.64" fill="white" transform="translate(274 15)"/>
</clipPath>
</defs>
</svg>
